<?xml version="1.0" standalone="no"?>
<!DOCTYPE svg PUBLIC "-//W3C//DTD SVG 20010904//EN"
 "http://www.w3.org/TR/2001/REC-SVG-20010904/DTD/svg10.dtd">
<svg version="1.0" xmlns="http://www.w3.org/2000/svg"
 width="300.000000pt" height="300.000000pt" viewBox="0 0 300.000000 300.000000"
 preserveAspectRatio="xMidYMid meet">
<metadata>
Created by potrace 1.14, written by Peter Selinger 2001-2017
</metadata>
<g transform="translate(0.000000,300.000000) scale(0.100000,-0.100000)"
fill="#000000" stroke="none">
<path d="M1349 2995 c-3 -2 -23 -6 -45 -9 -311 -37 -618 -186 -846 -410 -104
-102 -136 -140 -203 -241 -126 -189 -203 -390 -240 -625 -19 -123 -13 -369 13
-496 75 -371 275 -689 575 -915 45 -34 88 -64 97 -67 8 -3 17 -8 20 -11 24
-27 281 -144 344 -157 10 -2 33 -8 50 -13 33 -10 112 -26 186 -38 60 -9 320
-10 392 -1 434 56 835 310 1072 681 76 118 171 338 190 437 3 14 12 61 21 105
22 106 27 363 10 475 -18 116 -23 138 -29 148 -3 5 -7 19 -9 33 -17 92 -107
296 -183 417 -145 228 -379 433 -626 550 -72 33 -238 94 -238 87 0 -2 -11 0
-25 5 -29 11 -64 19 -115 26 -19 3 -42 8 -50 11 -17 7 -355 14 -361 8z m306
-249 c457 -52 879 -393 1030 -831 9 -28 18 -57 20 -65 2 -8 10 -40 18 -71 28
-105 39 -291 24 -419 -48 -423 -310 -794 -694 -984 -88 -44 -187 -81 -240 -91
-15 -2 -43 -9 -61 -14 -18 -5 -36 -10 -40 -10 -4 0 -32 -3 -62 -7 -225 -28
-475 12 -680 109 -59 28 -188 103 -200 117 -3 3 -23 18 -45 34 -56 42 -172
160 -226 231 -195 257 -282 578 -245 905 37 328 224 653 491 850 33 25 62 47
65 50 7 7 46 29 126 71 120 62 290 113 422 125 37 4 68 7 69 8 5 5 171 -2 228
-8z"/>
<path d="M1378 2375 c-2 -2 -25 -6 -51 -9 -58 -7 -194 -51 -235 -76 l-30 -18
38 -124 c55 -176 46 -162 84 -139 49 30 145 53 221 55 117 1 184 -48 191 -141
5 -63 -31 -138 -126 -258 -83 -104 -114 -154 -142 -228 -28 -73 -29 -81 -32
-183 l-2 -92 175 0 176 0 2 67 c2 113 53 224 149 328 127 136 184 239 200 355
8 63 8 61 1 117 -13 95 -52 168 -125 232 -32 28 -92 68 -112 74 -3 1 -12 5
-20 8 -41 19 -156 35 -252 35 -58 0 -108 -1 -110 -3z"/>
<path d="M1413 1029 c-86 -16 -152 -74 -172 -155 -42 -167 51 -303 212 -310
170 -6 279 140 230 310 -33 117 -140 178 -270 155z"/>
</g>
</svg>
